# This file uses centimeters as units for non-parametric coordinates.

mtllib spaceship.mtl
g default
v -0.500000 -0.339369 3.246985
v 0.500000 -0.339369 3.246985
v -0.500000 0.339369 1.774450
v 0.500000 0.339369 1.774450
v -0.500000 0.339369 -1.774450
v 0.500000 0.339369 -1.774450
v -0.500000 -0.339369 -3.246985
v 0.500000 -0.339369 -3.246985
v 0.534747 -0.339369 -3.246985
v 0.534747 -0.339369 3.246985
v 0.534747 0.339369 -1.774450
v 0.534747 0.339369 1.774450
v -0.534747 -0.339369 -3.246985
v -0.534747 -0.339369 3.246985
v -0.534747 0.339369 1.774450
v -0.534747 0.339369 -1.774450
v 1.374132 -0.300723 -1.370863
v 1.374132 -0.300723 4.383603
v 1.374132 0.300723 -0.066013
v 1.374132 0.300723 3.078754
v -1.374132 -0.300723 -1.370863
v -1.374132 -0.300723 4.383603
v -1.374132 0.300723 3.078754
v -1.374132 0.300723 -0.066013
v -0.500000 0.339369 1.774450
v 0.500000 0.339369 1.774450
v 0.500000 0.339369 -1.774450
v -0.500000 0.339369 -1.774450
v -0.500000 0.494463 0.994101
v 0.500000 0.494463 0.994101
v 0.500000 0.494463 -0.994101
v -0.500000 0.494463 -0.994101
v 0.548960 -0.648073 -1.335643
v 0.548960 -0.648073 5.158327
v 1.388345 -0.609427 0.540478
v 1.388345 -0.609427 6.294945
v -0.548960 -0.648073 -1.335643
v -0.548960 -0.648073 5.158327
v -1.388345 -0.609427 6.294945
v -1.388345 -0.609427 0.540478
vt 0.375000 0.000000
vt 0.625000 0.000000
vt 0.375000 0.250000
vt 0.625000 0.250000
vt 0.375000 0.500000
vt 0.625000 0.500000
vt 0.375000 0.750000
vt 0.625000 0.750000
vt 0.375000 1.000000
vt 0.625000 1.000000
vt 0.875000 0.000000
vt 0.875000 0.250000
vt 0.125000 0.000000
vt 0.125000 0.250000
vt 0.625000 0.000000
vt 0.875000 0.000000
vt 0.875000 0.250000
vt 0.625000 0.250000
vt 0.125000 0.000000
vt 0.375000 0.000000
vt 0.375000 0.250000
vt 0.125000 0.250000
vt 0.625000 0.000000
vt 0.875000 0.000000
vt 0.875000 0.250000
vt 0.625000 0.250000
vt 0.125000 0.000000
vt 0.375000 0.000000
vt 0.375000 0.250000
vt 0.125000 0.250000
vt 0.375000 0.250000
vt 0.625000 0.250000
vt 0.625000 0.500000
vt 0.375000 0.500000
vt 0.375000 0.250000
vt 0.625000 0.250000
vt 0.625000 0.500000
vt 0.375000 0.500000
vt 0.625000 0.000000
vt 0.875000 0.000000
vt 0.875000 0.000000
vt 0.625000 0.000000
vt 0.125000 0.000000
vt 0.375000 0.000000
vt 0.375000 0.000000
vt 0.125000 0.000000
vn -0.000000 0.908169 0.418604
vn 0.000000 0.908169 0.418604
vn 0.000000 0.919860 0.392248
vn -0.000000 0.919860 0.392248
vn 0.000000 1.000000 0.000000
vn 0.000000 1.000000 0.000000
vn 0.000000 1.000000 0.000000
vn 0.000000 1.000000 0.000000
vn -0.000000 0.919860 -0.392248
vn 0.000000 0.919860 -0.392248
vn 0.000000 0.908169 -0.418604
vn -0.000000 0.908169 -0.418604
vn -0.000000 -1.000000 0.000000
vn 0.000000 -1.000000 0.000000
vn 0.000000 -1.000000 0.000000
vn -0.000000 -1.000000 0.000000
vn 0.999597 0.028401 0.000000
vn 0.863946 -0.496691 -0.083041
vn 1.000000 0.000000 0.000000
vn 1.000000 0.000000 0.000000
vn -0.863946 -0.496691 -0.083041
vn -0.999597 0.028400 0.000000
vn -1.000000 0.000000 0.000000
vn -1.000000 0.000000 0.000000
vn 0.000001 -1.000000 0.000000
vn 0.000001 -1.000000 0.000000
vn 0.337074 0.929207 -0.151510
vn 0.648326 0.691446 -0.318709
vn -0.124515 0.985716 0.113401
vn -0.504420 0.784166 0.361447
vn -0.000001 -1.000000 0.000000
vn -0.000001 -1.000000 0.000000
vn 0.124515 0.985716 0.113401
vn 0.504420 0.784166 0.361447
vn -0.337074 0.929207 -0.151510
vn -0.648326 0.691446 -0.318709
vn 0.045992 -0.998942 0.000000
vn 0.045992 -0.998942 0.000000
vn 0.045992 -0.998942 0.000000
vn 0.045992 -0.998942 0.000000
vn 0.262509 0.958947 -0.107284
vn 0.666413 0.677115 -0.312104
vn -0.195801 0.968365 0.154700
vn -0.519917 0.775773 0.357578
vn -0.045992 -0.998942 0.000000
vn -0.045992 -0.998942 0.000000
vn -0.045992 -0.998942 0.000000
vn -0.045992 -0.998942 0.000000
vn 0.195801 0.968365 0.154700
vn 0.519917 0.775773 0.357578
vn -0.262509 0.958947 -0.107284
vn -0.666413 0.677115 -0.312104
vn 0.000000 0.000000 0.000000
vn 0.000000 0.000000 0.000000
vn 0.000000 0.000000 0.000000
vn 0.000000 0.000000 0.000000
vn 0.000000 0.000000 0.000000
vn 0.000000 0.000000 0.000000
vn 0.000000 0.000000 0.000000
vn 0.000000 0.000000 0.000000
vn 0.000000 0.000000 0.000000
vn 0.000000 0.000000 0.000000
vn 0.000000 0.000000 0.000000
vn 0.000000 0.000000 0.000000
vn 0.000000 0.000000 0.000000
vn 0.000000 0.000000 0.000000
vn 0.000000 0.000000 0.000000
vn 0.000000 0.000000 0.000000
vn 0.000000 0.980816 0.194936
vn 0.000000 0.980816 0.194936
vn 0.000000 0.980816 0.194936
vn 0.000000 0.980816 0.194936
vn 1.000000 -0.000000 0.000000
vn 1.000000 -0.000000 0.000000
vn 1.000000 -0.000000 0.000000
vn 1.000000 -0.000000 0.000000
vn 0.000000 0.980816 -0.194936
vn 0.000000 0.980816 -0.194936
vn 0.000000 0.980816 -0.194936
vn 0.000000 0.980816 -0.194936
vn -1.000000 -0.000000 0.000000
vn -1.000000 -0.000000 0.000000
vn -1.000000 -0.000000 0.000000
vn -1.000000 -0.000000 0.000000
vn -0.998942 -0.045992 0.000000
vn -0.998942 -0.045992 0.000000
vn -0.998942 -0.045992 0.000000
vn -0.998942 -0.045992 0.000000
vn 0.378103 -0.913473 -0.150348
vn 0.947954 -0.313149 -0.057626
vn 0.378103 -0.913473 -0.150348
vn 0.998942 0.045992 0.000000
vn -0.255195 0.954220 0.156015
vn -0.255195 0.954220 0.156015
vn -0.255195 0.954220 0.156015
vn -0.255195 0.954220 0.156015
vn 0.998942 -0.045992 0.000000
vn 0.998942 -0.045992 0.000000
vn 0.998942 -0.045992 0.000000
vn 0.998942 -0.045992 0.000000
vn 0.255195 0.954220 0.156015
vn 0.255195 0.954220 0.156015
vn 0.255195 0.954220 0.156015
vn 0.255195 0.954220 0.156015
vn -0.947954 -0.313149 -0.057626
vn -0.998942 0.045992 0.000000
vn -0.378103 -0.913473 -0.150348
vn -0.378103 -0.913473 -0.150348
s 1
g pCube1
usemtl initialShadingGroup
f 1/1/1 2/2/2 4/4/3 3/3/4
s off
f 29/35/5 30/36/6 31/37/7 32/38/8
s 1
f 5/5/9 6/6/10 8/8/11 7/7/12
s 3
f 7/7/13 8/8/14 2/10/15 1/9/16
s 4
f 18/23/17 17/24/18 19/25/19 20/26/20
s 5
f 21/27/21 22/28/22 23/29/23 24/30/24
s 3
f 2/2/15 8/11/14 9/16/25 10/15/26
s 1
f 8/11/11 6/12/10 11/17/27 9/16/28
f 6/12/10 4/4/3 12/18/29 11/17/27
f 4/4/3 2/2/2 10/15/30 12/18/29
s 3
f 7/13/13 1/1/16 14/20/31 13/19/32
s 1
f 1/1/1 3/3/4 15/21/33 14/20/34
f 3/3/4 5/14/9 16/22/35 15/21/33
f 5/14/9 7/13/12 13/19/36 16/22/35
s off
f 34/39/37 33/40/38 35/41/39 36/42/40
s 1
f 9/16/28 11/17/27 19/25/41 17/24/42
f 11/17/27 12/18/29 20/26/43 19/25/41
f 12/18/29 10/15/30 18/23/44 20/26/43
s off
f 37/43/45 38/44/46 39/45/47 40/46/48
s 1
f 14/20/34 15/21/33 23/29/49 22/28/50
f 15/21/33 16/22/35 24/30/51 23/29/49
f 16/22/35 13/19/36 21/27/52 24/30/51
s off
f 3/3/53 4/4/54 26/32/55 25/31/56
f 4/4/57 6/6/58 27/33/59 26/32/60
f 6/6/61 5/5/62 28/34/63 27/33/64
f 5/5/65 3/3/66 25/31/67 28/34/68
f 25/31/69 26/32/70 30/36/71 29/35/72
f 26/32/73 27/33/74 31/37/75 30/36/76
f 27/33/77 28/34/78 32/38/79 31/37/80
f 28/34/81 25/31/82 29/35/83 32/38/84
f 10/15/85 9/16/86 33/40/87 34/39/88
s 4
f 9/16/89 17/24/18 35/41/90 33/40/91
f 17/24/18 18/23/17 36/42/92 35/41/90
s off
f 18/23/93 10/15/94 34/39/95 36/42/96
f 13/19/97 14/20/98 38/44/99 37/43/100
f 14/20/101 22/28/102 39/45/103 38/44/104
s 5
f 22/28/22 21/27/21 40/46/105 39/45/106
f 21/27/21 13/19/107 37/43/108 40/46/105
